<mxfile host="app.diagrams.net" agent="Mozilla/5.0 (Windows NT 10.0; Win64; x64) AppleWebKit/537.36 (KHTML, like Gecko) Chrome/129.0.0.0 Safari/537.36" version="24.8.6">
  <diagram name="Page-1" id="rkLxHUx-IrB1K8flCPBw">
    <mxGraphModel dx="1059" dy="559" grid="1" gridSize="10" guides="1" tooltips="1" connect="1" arrows="1" fold="1" page="1" pageScale="1" pageWidth="827" pageHeight="1169" math="0" shadow="0">
      <root>
        <mxCell id="0" />
        <mxCell id="1" parent="0" />
        <mxCell id="-qfVR1ADoQF9JHvpevq--1" value="" style="ellipse;whiteSpace=wrap;html=1;fontFamily=Times New Roman;" parent="1" vertex="1">
          <mxGeometry x="350" y="148" width="120" height="80" as="geometry" />
        </mxCell>
        <mxCell id="MLWAo8v4HBn694Yaeo6o-2" value="Bắt đầu" style="text;strokeColor=none;align=center;fillColor=none;html=1;verticalAlign=middle;whiteSpace=wrap;rounded=0;" vertex="1" parent="1">
          <mxGeometry x="370" y="164" width="80" height="50" as="geometry" />
        </mxCell>
        <mxCell id="MLWAo8v4HBn694Yaeo6o-3" value="" style="endArrow=classic;html=1;rounded=0;exitX=0.5;exitY=1;exitDx=0;exitDy=0;" edge="1" parent="1" source="-qfVR1ADoQF9JHvpevq--1">
          <mxGeometry width="50" height="50" relative="1" as="geometry">
            <mxPoint x="414" y="163" as="sourcePoint" />
            <mxPoint x="410" y="260" as="targetPoint" />
          </mxGeometry>
        </mxCell>
        <mxCell id="MLWAo8v4HBn694Yaeo6o-4" value="" style="rounded=0;whiteSpace=wrap;html=1;" vertex="1" parent="1">
          <mxGeometry x="350" y="260" width="120" height="60" as="geometry" />
        </mxCell>
        <mxCell id="MLWAo8v4HBn694Yaeo6o-5" value="Nhập vào 2 số nguyên a và b" style="text;strokeColor=none;align=center;fillColor=none;html=1;verticalAlign=middle;whiteSpace=wrap;rounded=0;" vertex="1" parent="1">
          <mxGeometry x="360" y="270" width="100" height="40" as="geometry" />
        </mxCell>
        <mxCell id="MLWAo8v4HBn694Yaeo6o-6" value="" style="endArrow=classic;html=1;rounded=0;exitX=0.5;exitY=1;exitDx=0;exitDy=0;" edge="1" parent="1" source="MLWAo8v4HBn694Yaeo6o-4" target="MLWAo8v4HBn694Yaeo6o-7">
          <mxGeometry width="50" height="50" relative="1" as="geometry">
            <mxPoint x="350" y="440" as="sourcePoint" />
            <mxPoint x="410" y="390" as="targetPoint" />
          </mxGeometry>
        </mxCell>
        <mxCell id="MLWAo8v4HBn694Yaeo6o-7" value="" style="rhombus;whiteSpace=wrap;html=1;" vertex="1" parent="1">
          <mxGeometry x="350" y="350" width="120" height="60" as="geometry" />
        </mxCell>
        <mxCell id="MLWAo8v4HBn694Yaeo6o-8" value="So sánh a và b" style="text;strokeColor=none;align=center;fillColor=none;html=1;verticalAlign=middle;whiteSpace=wrap;rounded=0;" vertex="1" parent="1">
          <mxGeometry x="380" y="365" width="60" height="30" as="geometry" />
        </mxCell>
        <mxCell id="MLWAo8v4HBn694Yaeo6o-9" value="" style="endArrow=classic;html=1;rounded=0;exitX=0;exitY=0.5;exitDx=0;exitDy=0;" edge="1" parent="1" source="MLWAo8v4HBn694Yaeo6o-7">
          <mxGeometry width="50" height="50" relative="1" as="geometry">
            <mxPoint x="350" y="440" as="sourcePoint" />
            <mxPoint x="290" y="380" as="targetPoint" />
          </mxGeometry>
        </mxCell>
        <mxCell id="MLWAo8v4HBn694Yaeo6o-10" value="" style="endArrow=classic;html=1;rounded=0;" edge="1" parent="1">
          <mxGeometry width="50" height="50" relative="1" as="geometry">
            <mxPoint x="296" y="380" as="sourcePoint" />
            <mxPoint x="296" y="450" as="targetPoint" />
          </mxGeometry>
        </mxCell>
        <mxCell id="MLWAo8v4HBn694Yaeo6o-11" value="" style="rounded=0;whiteSpace=wrap;html=1;" vertex="1" parent="1">
          <mxGeometry x="237" y="450" width="120" height="60" as="geometry" />
        </mxCell>
        <mxCell id="MLWAo8v4HBn694Yaeo6o-12" value="Nếu&amp;nbsp; a &amp;gt; b" style="text;strokeColor=none;align=center;fillColor=none;html=1;verticalAlign=middle;whiteSpace=wrap;rounded=0;" vertex="1" parent="1">
          <mxGeometry x="247" y="460" width="100" height="40" as="geometry" />
        </mxCell>
        <mxCell id="MLWAo8v4HBn694Yaeo6o-13" value="" style="endArrow=classic;html=1;rounded=0;exitX=0.5;exitY=1;exitDx=0;exitDy=0;" edge="1" parent="1" source="MLWAo8v4HBn694Yaeo6o-11" target="MLWAo8v4HBn694Yaeo6o-14">
          <mxGeometry width="50" height="50" relative="1" as="geometry">
            <mxPoint x="420" y="470" as="sourcePoint" />
            <mxPoint x="300" y="560" as="targetPoint" />
          </mxGeometry>
        </mxCell>
        <mxCell id="MLWAo8v4HBn694Yaeo6o-14" value="" style="rounded=0;whiteSpace=wrap;html=1;" vertex="1" parent="1">
          <mxGeometry x="238" y="530" width="120" height="60" as="geometry" />
        </mxCell>
        <mxCell id="MLWAo8v4HBn694Yaeo6o-15" value="In ra màn hình a là số lớn hơn" style="text;strokeColor=none;align=center;fillColor=none;html=1;verticalAlign=middle;whiteSpace=wrap;rounded=0;" vertex="1" parent="1">
          <mxGeometry x="269" y="545" width="60" height="30" as="geometry" />
        </mxCell>
        <mxCell id="MLWAo8v4HBn694Yaeo6o-16" value="" style="endArrow=classic;html=1;rounded=0;exitX=1;exitY=0.5;exitDx=0;exitDy=0;" edge="1" parent="1" source="MLWAo8v4HBn694Yaeo6o-7">
          <mxGeometry width="50" height="50" relative="1" as="geometry">
            <mxPoint x="420" y="470" as="sourcePoint" />
            <mxPoint x="530" y="380" as="targetPoint" />
          </mxGeometry>
        </mxCell>
        <mxCell id="MLWAo8v4HBn694Yaeo6o-17" value="" style="endArrow=classic;html=1;rounded=0;" edge="1" parent="1" target="MLWAo8v4HBn694Yaeo6o-18">
          <mxGeometry width="50" height="50" relative="1" as="geometry">
            <mxPoint x="520" y="380" as="sourcePoint" />
            <mxPoint x="520" y="440" as="targetPoint" />
          </mxGeometry>
        </mxCell>
        <mxCell id="MLWAo8v4HBn694Yaeo6o-18" value="" style="rounded=0;whiteSpace=wrap;html=1;" vertex="1" parent="1">
          <mxGeometry x="460" y="450" width="120" height="60" as="geometry" />
        </mxCell>
        <mxCell id="MLWAo8v4HBn694Yaeo6o-19" value="Nếu a &amp;lt; b" style="text;strokeColor=none;align=center;fillColor=none;html=1;verticalAlign=middle;whiteSpace=wrap;rounded=0;" vertex="1" parent="1">
          <mxGeometry x="490" y="465" width="60" height="30" as="geometry" />
        </mxCell>
        <mxCell id="MLWAo8v4HBn694Yaeo6o-20" value="" style="endArrow=classic;html=1;rounded=0;exitX=0.5;exitY=1;exitDx=0;exitDy=0;" edge="1" parent="1" source="MLWAo8v4HBn694Yaeo6o-18" target="MLWAo8v4HBn694Yaeo6o-21">
          <mxGeometry width="50" height="50" relative="1" as="geometry">
            <mxPoint x="420" y="470" as="sourcePoint" />
            <mxPoint x="520" y="530" as="targetPoint" />
          </mxGeometry>
        </mxCell>
        <mxCell id="MLWAo8v4HBn694Yaeo6o-21" value="" style="rounded=0;whiteSpace=wrap;html=1;" vertex="1" parent="1">
          <mxGeometry x="460" y="530" width="120" height="60" as="geometry" />
        </mxCell>
        <mxCell id="MLWAo8v4HBn694Yaeo6o-22" value="In ra màn hình b là số lớn hơn" style="text;strokeColor=none;align=center;fillColor=none;html=1;verticalAlign=middle;whiteSpace=wrap;rounded=0;" vertex="1" parent="1">
          <mxGeometry x="490" y="545" width="60" height="30" as="geometry" />
        </mxCell>
        <mxCell id="MLWAo8v4HBn694Yaeo6o-23" value="" style="endArrow=classic;html=1;rounded=0;exitX=0.5;exitY=1;exitDx=0;exitDy=0;" edge="1" parent="1" source="MLWAo8v4HBn694Yaeo6o-14" target="MLWAo8v4HBn694Yaeo6o-24">
          <mxGeometry width="50" height="50" relative="1" as="geometry">
            <mxPoint x="330" y="600" as="sourcePoint" />
            <mxPoint x="390" y="650" as="targetPoint" />
          </mxGeometry>
        </mxCell>
        <mxCell id="MLWAo8v4HBn694Yaeo6o-24" value="" style="rounded=1;whiteSpace=wrap;html=1;" vertex="1" parent="1">
          <mxGeometry x="350" y="620" width="120" height="60" as="geometry" />
        </mxCell>
        <mxCell id="MLWAo8v4HBn694Yaeo6o-25" value="" style="endArrow=classic;html=1;rounded=0;exitX=0.5;exitY=1;exitDx=0;exitDy=0;entryX=0.911;entryY=-0.054;entryDx=0;entryDy=0;entryPerimeter=0;" edge="1" parent="1" source="MLWAo8v4HBn694Yaeo6o-21" target="MLWAo8v4HBn694Yaeo6o-24">
          <mxGeometry width="50" height="50" relative="1" as="geometry">
            <mxPoint x="420" y="470" as="sourcePoint" />
            <mxPoint x="470" y="420" as="targetPoint" />
          </mxGeometry>
        </mxCell>
        <mxCell id="MLWAo8v4HBn694Yaeo6o-26" value="Kết thúc chương trình" style="text;strokeColor=none;align=center;fillColor=none;html=1;verticalAlign=middle;whiteSpace=wrap;rounded=0;" vertex="1" parent="1">
          <mxGeometry x="380" y="635" width="60" height="30" as="geometry" />
        </mxCell>
      </root>
    </mxGraphModel>
  </diagram>
</mxfile>
